
<svg xmlns="http://www.w3.org/2000/svg" version="1.1" xmlns:xlink="http://www.w3.org/1999/xlink" preserveAspectRatio="none" x="0px" y="0px" width="30px" height="30px" viewBox="0 0 30 30">
<defs>
<g id="Layer0_0_MEMBER_0_FILL">
<path fill="#00B7D7" stroke="none" d="
M 34.15 15.8
Q 31.55 13.25 27.95 13.25 24.3 13.25 21.75 15.8 19.2 18.35 19.2 22 19.2 24.15 20.2 26.1
L 14.15 32.15 14.15 32.2
Q 13.35 32.9 13.35 34 13.35 35.05 14.1 35.85 14.85 36.55 15.9 36.55 17.05 36.55 17.75 35.8
L 23.85 29.75
Q 25.8 30.75 27.95 30.75 31.55 30.75 34.15 28.2 36.7 25.65 36.7 22 36.7 18.35 34.15 15.8
M 20.65 22
Q 20.65 18.95 22.75 16.85 24.9 14.7 27.95 14.7 31 14.7 33.1 16.85 35.25 19 35.25 22 35.25 25 33.1 27.15 31 29.25 27.95 29.25 24.9 29.25 22.75 27.15 20.65 25 20.65 22
M 15.05 33.1
L 15 33.05 20.9 27.2
Q 21.7 28.25 22.75 29
L 16.85 34.9
Q 16.5 35.3 15.9 35.3 15.4 35.3 15 34.95 14.65 34.5 14.65 34 14.65 33.45 15.05 33.1 Z"/>
</g>

<g id="Layer0_0_MEMBER_1_FILL">
<path fill="#00B7D7" stroke="none" d="
M 20.5 5.5
Q 20.5 5 20 5 17.1 5 15.05 7.05 13 9.1 13 12 13 12.5 13.5 12.5 14 12.5 14 12 14 9.5 15.75 7.75 17.5 6 20 6 20.5 6 20.5 5.5 Z"/>
</g>
</defs>

<g transform="matrix( -0.857025146484375, 0, 0, 0.8557281494140625, 36.45,-6.3) ">
<use xlink:href="#Layer0_0_MEMBER_0_FILL"/>
</g>

<g transform="matrix( -0.6249237060546875, 0, 0, 0.62396240234375, 24.95,5.05) ">
<use xlink:href="#Layer0_0_MEMBER_1_FILL"/>
</g>
</svg>
