
<svg xmlns="http://www.w3.org/2000/svg" version="1.1" xmlns:xlink="http://www.w3.org/1999/xlink" preserveAspectRatio="none" x="0px" y="0px" width="40px" height="40px" viewBox="0 0 40 40">
<defs>
<g id="Layer0_0_MEMBER_1_MEMBER_0_MEMBER_0_FILL">
<path fill="#FFFFFF" stroke="none" d="
M 629.45 1778.9
Q 616 1771.75 603.25 1779.4 596.4 1783.35 592.4 1791.25 587.9 1801.8 591 1810.95 594.6 1821.6 601.55 1827.05 602.2 1827.7 603.55 1828.75 604.7 1829.75 605.05 1830.75 605.45 1831.9 605 1833.25 600.55 1840.3 599.5 1842.5
L 599.3 1842.9 635.7 1842.9
Q 635 1841.1 634.6 1840.15 633.9 1838.45 632.8 1837.25
L 631.1 1834.9
Q 630.25 1833.6 630 1832.45 629.9 1831.5 629.9 1831.45
L 630 1830.45
Q 630.4 1829.2 631.6 1827.8
L 633.05 1826.4
Q 633.5 1826.05 637.1 1822.35
L 637.05 1822.35
Q 643.5 1814.35 643.35 1805 643.55 1801.05 642.9 1797.4 643.15 1796.6 645.3 1794 643.75 1794.45 642.2 1794.45 641.05 1794.45 640.35 1794.15 641.05 1793.5 641.75 1793.15 644.85 1791.25 645.3 1789.05 643.5 1789.75 642.6 1789.8 641.6 1789.8 640.1 1789.2 642.6 1787.75 643.8 1784.5 638.7 1785.55 635.8 1783.25 635.5 1782.9 634.6 1782.2 632.05 1780.3 629.45 1778.9 Z"/>
</g>

<g id="Layer0_0_MEMBER_1_MEMBER_1_MEMBER_0_FILL">
<path fill="#EFEFEF" stroke="none" d="
M 642 1797.9
Q 641.6 1798.6 641.25 1799.9 638.95 1816.3 628.65 1824.25 623.55 1828.2 618.85 1828.9 617.45 1828.9 616.95 1829.4 616.45 1829.9 617.5 1830.25 620.45 1831.3 629.55 1829.5 640.15 1827.35 642.7 1815.15 643.8 1809.8 643.05 1799.6 642.85 1796.5 642 1797.9 Z"/>
</g>

<g id="Layer0_0_MEMBER_1_MEMBER_2_MEMBER_0_FILL">
<path fill="#604915" stroke="none" d="
M 617.5 1780.15
L 617.95 1778.65
Q 618.6 1776.9 619.75 1775.45 615.15 1777.6 614.75 1782.9 614.45 1788.05 610.05 1791.05 613.35 1790.4 615.15 1788.65
L 615.7 1788
Q 616.5 1787.05 616.9 1785.5
L 619.65 1788.2 621 1783.15 617.05 1784.2 617.05 1783.85
Q 617.15 1781.8 617.5 1780.15 Z"/>
</g>

<g id="Layer0_0_MEMBER_1_MEMBER_3_MEMBER_0_FILL">
<path fill="#FFFFFF" stroke="none" d="
M 596.55 1821.3
Q 593.6 1818.65 592.7 1821.3 589.9 1819.3 588.1 1822.3 581.65 1821.25 583.35 1826.35 588.1 1833.9 601 1836.2
L 605.1 1837.85 610.2 1830.5 603.85 1828.85
Q 599.4 1825.95 596.55 1821.3 Z"/>
</g>

<g id="Layer0_0_MEMBER_1_MEMBER_4_MEMBER_0_FILL">
<path fill="#FFCC00" stroke="none" d="
M 625.6 1815.55
Q 621.7 1815.4 616.6 1811.1 609.95 1816.65 605.45 1815.35
L 611.6 1821.25
Q 614.85 1824.2 618.2 1823.25 620.1 1819.2 625.6 1815.55 Z"/>
</g>

<g id="Layer0_0_MEMBER_1_MEMBER_5_MEMBER_0_FILL">
<path fill="#FF9600" stroke="none" d="
M 621.6 1821.2
L 627.9 1815.25
Q 626.85 1815.65 625.6 1815.55 620.1 1819.2 618.2 1823.25 619.85 1822.8 621.6 1821.2 Z"/>
</g>

<g id="Layer0_0_MEMBER_1_MEMBER_6_MEMBER_0_FILL">
<path fill="#604915" stroke="none" d="
M 616.95 1810.7
Q 616.6 1810.45 616.25 1810.7 609.8 1816 605.65 1814.8
L 605.55 1814.8
Q 603.4 1814.1 601.85 1811.8 601.55 1811.4 601.1 1811.65 600.6 1812.05 600.95 1812.45 602.7 1815.05 605.1 1815.8
L 611.25 1821.65
Q 613.9 1824.05 616.55 1824.05 617.35 1824.05 618.35 1823.8 620.2 1823.25 622 1821.6
L 628.2 1815.75
Q 629.65 1815.3 631 1813.9 631.55 1813.4 632.25 1812.45 632.55 1812 632.1 1811.65 631.65 1811.4 631.3 1811.8 631 1812.3 630.25 1813.15 629.1 1814.3 627.75 1814.75 626.7 1815.05 625.65 1815 621.95 1814.85 616.95 1810.7
M 625.6 1816.1
Q 625.9 1816.2 626.2 1816.1
L 621.25 1820.8
Q 619.45 1822.35 618 1822.75 615 1823.65 612 1820.85
L 607.05 1816.1
Q 611.05 1816.25 616.6 1811.85 621.7 1815.95 625.6 1816.1 Z"/>
</g>

<g id="Layer0_0_MEMBER_1_MEMBER_7_MEMBER_0_FILL">
<path fill="#EFEFEF" stroke="none" d="
M 641.25 1798.55
Q 641.4 1799.55 641.6 1800 641.85 1800.65 642.05 1799.25 642.25 1797.9 643.35 1796.1
L 644.35 1794.55
Q 641.85 1795.35 641.3 1797 641.05 1797.85 641.25 1798.55 Z"/>
</g>

<g id="Layer0_0_MEMBER_1_MEMBER_8_MEMBER_0_FILL">
<path fill="#EFEFEF" stroke="none" d="
M 638.15 1788.25
Q 638.15 1789.35 639.65 1789 640.35 1788.8 641.2 1788.15 642.9 1786.9 643.7 1784.85 641.7 1787.1 639.65 1787.15 638.1 1787.2 638.15 1788.25 Z"/>
</g>

<g id="Layer0_0_MEMBER_1_MEMBER_9_MEMBER_0_FILL">
<path fill="#EFEFEF" stroke="none" d="
M 639.1 1793
Q 638.95 1794.15 639.85 1793.95 640.75 1793.85 641.85 1793.3 644.1 1792.15 645.05 1789.85 642.35 1791.45 640.55 1791.7 639.25 1791.9 639.1 1793 Z"/>
</g>

<g id="Layer0_0_MEMBER_1_MEMBER_10_MEMBER_0_FILL">
<path fill="#FFCC00" stroke="none" d="
M 634.8 1811.15
Q 635.9 1811.15 636.6 1810.65 637.35 1810.15 637.35 1809.4 637.35 1808.6 636.6 1808.15 635.8 1807.6 634.8 1807.6 633.8 1807.6 633 1808.15 632.3 1808.6 632.3 1809.4 632.3 1810.1 633 1810.65 633.7 1811.15 634.8 1811.15 Z"/>
</g>

<g id="Layer0_0_MEMBER_1_MEMBER_11_MEMBER_0_FILL">
<path fill="#FFCC00" stroke="none" d="
M 596.4 1808.7
Q 595.7 1809.3 595.85 1810.05 595.9 1810.75 596.7 1811.2 597.5 1811.65 598.55 1811.5 599.65 1811.35 600.25 1810.8 600.95 1810.2 600.85 1809.45 600.8 1808.75 600 1808.3 599.15 1807.85 598.15 1808 597 1808.15 596.4 1808.7 Z"/>
</g>

<g id="Layer0_0_MEMBER_1_MEMBER_12_MEMBER_0_MEMBER_0_FILL">
<path fill="#604915" stroke="none" d="
M 635 1781.7
Q 632.75 1780 629.7 1778.35 615.95 1771.05 602.95 1778.85 595.95 1782.85 591.85 1790.95
L 591.85 1791
Q 587.25 1801.8 590.4 1811.15 594.15 1822.05 601.15 1827.6 602.05 1828.45 604.05 1829.85 604.6 1830.2 604.95 1829.7 605.3 1829.2 604.8 1828.8 602.95 1827.6 602 1826.65
L 601.95 1826.65
Q 595.15 1821.3 591.6 1810.75 588.6 1801.85 593 1791.5 596.85 1783.8 603.55 1779.9 616.05 1772.45 629.15 1779.45 631.95 1780.95 634.25 1782.7
L 635.35 1783.7 635.4 1783.7
Q 638.1 1785.9 642.8 1785.3 641.7 1787.6 639.8 1788.65 639.45 1788.85 639.45 1789.25 639.55 1789.65 639.85 1789.8 641.2 1790.3 642.1 1790.4 643 1790.45 644.2 1790.1 643.35 1791.45 641.45 1792.6 640.55 1793.15 639.95 1793.65 639.7 1793.9 639.75 1794.25 639.75 1794.55 640.1 1794.7 640.8 1795.05 642.2 1795.05
L 643.75 1794.95
Q 642.55 1796.45 642.3 1797.25 642.2 1797.4 642.3 1797.5 643 1801.1 642.75 1804.95
L 642.75 1805
Q 642.9 1814.05 636.6 1821.95
L 636.5 1822.1
Q 635.65 1823.4 634.15 1825.15 631.8 1827.9 630 1828.9 629.5 1829.25 629.75 1829.75 630 1830.1 630.3 1830.1
L 630.6 1830
Q 633.95 1828.15 637.6 1822.7
L 637.65 1822.65
Q 644.15 1814.5 644 1805 644.25 1801.05 643.55 1797.45 643.85 1796.7 645.8 1794.4 646.1 1794.1 645.85 1793.65 645.6 1793.3 645.15 1793.4 643.8 1793.8 642.2 1793.8
L 641.9 1793.8 642.1 1793.65
Q 645.4 1791.6 645.9 1789.15 646 1788.75 645.7 1788.55 645.45 1788.3 645.1 1788.45 643.65 1788.95 643 1789.1 642.25 1789.2 641.45 1789 643.3 1787.55 644.4 1784.7 644.55 1784.35 644.3 1784.1 644.1 1783.8 643.7 1783.9 638.8 1784.8 636.2 1782.75
L 635 1781.7 Z"/>
</g>

<g id="Layer0_0_MEMBER_1_MEMBER_12_MEMBER_1_MEMBER_0_FILL">
<path fill="#604915" stroke="none" d="
M 599.3 1843.55
Q 599.8 1843.55 599.9 1843.1 601.05 1839.25 603.2 1836.8 603.6 1836.3 603.1 1835.95 602.9 1835.75 602.65 1835.8 602.4 1835.8 602.25 1836 599.95 1838.6 598.7 1842.75 598.5 1843.3 599.15 1843.5
L 599.3 1843.55 Z"/>
</g>

<g id="Layer0_0_MEMBER_1_MEMBER_13_MEMBER_0_FILL">
<path fill="#FFFFFF" stroke="none" d="
M 636.1 1821.65
Q 634.1 1826.2 630.3 1829.45
L 625.2 1830.85 629.25 1838.85 632.9 1836.55
Q 645.5 1832.2 648.95 1824.65 649.95 1819.75 644.05 1821.5 642.05 1818.95 639.7 1821.15 638.5 1818.9 636.1 1821.65 Z"/>
</g>

<g id="Layer0_0_MEMBER_1_MEMBER_14_MEMBER_0_FILL">
<path fill="#EFEFEF" stroke="none" d="
M 648.95 1824.65
Q 650.35 1820.9 648.4 1820.1
L 646.15 1820
Q 645.2 1825.15 640.25 1829.95 636.25 1833.85 633.45 1834.6 631.2 1835.2 630.75 1835.8 630.15 1836.65 631.1 1838.85 632.4 1842 631.8 1843
L 636.1 1843
Q 636 1842.4 635.3 1841.1 635.25 1841 633.3 1837.85 632.25 1836.05 632.7 1836.05 632.9 1836.05 633.35 1836.4 637.95 1835.6 642.45 1832.4 647.35 1828.95 648.95 1824.65 Z"/>
</g>

<g id="Layer0_0_MEMBER_1_MEMBER_15_MEMBER_0_FILL">
<path fill="#4F4F4F" stroke="none" d="
M 639.7 1821.15
Q 642.05 1818.95 644.05 1821.5 649.95 1819.75 648.95 1824.65 652.2 1815.2 645.2 1811.8 640.6 1810 639.85 1813.15 637.35 1812.55 637.5 1814.15 637.7 1817.95 636.1 1821.65 638.5 1818.85 639.7 1821.15 Z"/>
</g>

<g id="Layer0_0_MEMBER_1_MEMBER_16_MEMBER_0_FILL">
<path fill="#604915" stroke="none" d="
M 649.5 1824.95
L 649.55 1824.85
Q 652.95 1814.85 645.5 1811.25
L 645.45 1811.25
Q 642.45 1810 640.8 1810.85 639.8 1811.4 639.45 1812.4 638.05 1812.2 637.4 1812.75 636.8 1813.25 636.9 1814.2 637.05 1817.95 635.55 1821.35
L 635.55 1821.4
Q 633.6 1825.85 629.9 1829 629.4 1829.4 629.85 1829.85 630.25 1830.35 630.7 1829.95 634.55 1826.65 636.65 1821.95 637.85 1820.6 638.45 1820.75 638.85 1820.8 639.15 1821.45 639.3 1821.7 639.6 1821.8 639.95 1821.8 640.15 1821.6 641 1820.75 641.9 1820.75 642.7 1820.8 643.55 1821.9 643.9 1822.25 644.25 1822.1 647.05 1821.25 648 1822.05 648.65 1822.65 648.35 1824.5 644.95 1831.75 632.7 1835.95 632.1 1836.2 632.3 1836.75 632.45 1837.2 632.9 1837.2
L 633.1 1837.15
Q 645.95 1832.7 649.5 1824.95
M 649.15 1821.45
L 648.85 1821.15
Q 648.05 1820.4 646.65 1820.4 645.75 1820.4 644.25 1820.8 643.25 1819.65 641.95 1819.5 640.8 1819.5 639.85 1820.25 639.35 1819.6 638.55 1819.5 638 1819.4 637.5 1819.7 638.25 1817.1 638.15 1814.1 638.05 1813.85 638.2 1813.7 638.45 1813.45 639.7 1813.75 639.9 1813.8 640.2 1813.7 640.45 1813.55 640.45 1813.3 640.75 1812.25 641.35 1812 642.5 1811.4 644.95 1812.4 650.3 1814.9 649.15 1821.45 Z"/>
</g>

<g id="Layer0_0_MEMBER_1_MEMBER_17_MEMBER_0_FILL">
<path fill="#604915" stroke="none" d="
M 633.3 1836.9
L 633.05 1836.5
Q 632.65 1836 632.15 1836.35 631.65 1836.7 632 1837.25
L 632.3 1837.6
Q 633.65 1839.5 635.15 1843.15 635.3 1843.55 635.7 1843.55
L 635.95 1843.5
Q 636.45 1843.25 636.3 1842.65 634.75 1838.85 633.3 1836.9 Z"/>
</g>

<g id="Layer0_0_MEMBER_1_MEMBER_18_MEMBER_0_FILL">
<path fill="#604915" stroke="none" d="
M 605.05 1805.6
L 605.15 1805.95 607.25 1805.95 607.4 1805.6
Q 608 1803.95 607.85 1801.7 607.75 1799.1 607.4 1797.75 606.85 1796.15 606.2 1796.15 605.5 1796.15 605.05 1797.75 604.55 1799.6 604.55 1801.7 604.55 1803.75 605.05 1805.6 Z"/>
</g>

<g id="Layer0_0_MEMBER_1_MEMBER_19_MEMBER_0_FILL">
<path fill="#604915" stroke="none" d="
M 625.4 1805.95
L 627.5 1805.95 627.65 1805.6
Q 628.1 1803.95 628.1 1801.7 628.1 1799.4 627.65 1797.75 627.1 1796.15 626.45 1796.15 625.85 1796.15 625.3 1797.75 624.8 1799.6 624.8 1801.7 624.8 1803.75 625.3 1805.6
L 625.4 1805.95 Z"/>
</g>

<g id="Layer0_0_MEMBER_1_MEMBER_20_MEMBER_0_FILL">
<path fill="#EFEFEF" stroke="none" d="
M 583.65 1822.85
L 581.4 1820.1
Q 582.05 1826 587.7 1830.45 592.85 1834.5 600 1835.85 605.6 1836.9 605.1 1835.9
L 603.5 1834.7
Q 597.1 1834.3 589.75 1828.55
L 583.65 1822.85 Z"/>
</g>

<g id="Layer0_0_MEMBER_1_MEMBER_21_MEMBER_0_FILL">
<path fill="#4F4F4F" stroke="none" d="
M 592.7 1821.3
Q 593.6 1818.65 596.55 1821.3 594.35 1817.65 594.05 1813.55 594 1811.8 591.4 1812.8 590.1 1809.55 585.5 1812.15 578.55 1816.7 583.35 1826.35 581.65 1821.25 588.1 1822.3 589.9 1819.3 592.7 1821.3 Z"/>
</g>

<g id="Layer0_0_MEMBER_1_MEMBER_22_MEMBER_0_FILL">
<path fill="#604915" stroke="none" d="
M 583.9 1826.1
Q 583.3 1824.15 583.95 1823.4 584.8 1822.4 588 1822.95 588.45 1822.95 588.65 1822.65 589.4 1821.4 590.3 1821.15 591.15 1821 592.3 1821.85 592.65 1822.05 592.85 1821.9 593.1 1821.85 593.3 1821.55 593.55 1820.75 594 1820.65 594.7 1820.5 596.1 1821.7 599.2 1826.75 604.1 1829.85 604.55 1830.2 604.95 1829.7 605.3 1829.15 604.75 1828.8 600.05 1825.8 597.1 1821
L 597.1 1820.95
Q 595.05 1817.55 594.65 1813.5 594.6 1812.5 593.95 1812.05 593.1 1811.6 591.7 1812 591.1 1810.9 590.05 1810.55 588.25 1809.9 585.2 1811.6
L 585.15 1811.6
Q 577.75 1816.5 582.8 1826.6
L 582.85 1826.7
Q 585.1 1830.35 590.25 1833.05 595.45 1835.75 602.6 1837
L 602.7 1837.05
Q 603.2 1837.05 603.3 1836.5 603.45 1835.9 602.8 1835.8 595.95 1834.55 591 1832 586.1 1829.5 583.9 1826.1
M 582.65 1823.1
Q 580.4 1816.25 585.85 1812.65 588.35 1811.3 589.65 1811.75 590.4 1812 590.8 1813.05 590.85 1813.2 591.15 1813.4 591.4 1813.5 591.6 1813.4 592.95 1812.85 593.25 1813.15 593.4 1813.25 593.4 1813.6 593.7 1816.75 594.9 1819.5 594.3 1819.3 593.65 1819.45 592.95 1819.6 592.45 1820.4 591.2 1819.75 590.05 1819.95 588.8 1820.15 587.8 1821.65 584.2 1821.1 583 1822.6
L 582.65 1823.1 Z"/>
</g>

<g id="Layer0_0_MEMBER_1_MEMBER_23_MEMBER_0_FILL">
<path fill="#FFFFFF" stroke="none" d="
M 607.85 1801.35
L 607.85 1800.7
Q 607.35 1800.85 606.95 1800.35 606.05 1799.35 606.35 1796.15
L 605.75 1796.15 605.95 1798.3
Q 605.9 1800.45 604.6 1800.7
L 604.6 1801.35 605.5 1801.7
Q 606.3 1802.6 606 1805.55
L 606.45 1805.55
Q 606.3 1804.4 606.4 1803.25 606.6 1801.05 607.85 1801.35 Z"/>
</g>

<g id="Layer0_0_MEMBER_1_MEMBER_24_MEMBER_0_FILL">
<path fill="#FFFFFF" stroke="none" d="
M 628.15 1801.7
L 628.15 1800.9
Q 627.6 1801.3 627.15 1800.85 626.3 1800 626.9 1795.95
L 626.3 1795.95 626.3 1798.5
Q 626.05 1801 624.85 1800.9
L 624.85 1801.7 625.65 1801.95
Q 626.45 1802.75 626.35 1805.55
L 626.8 1805.55
Q 626.65 1804.45 626.75 1803.4 626.9 1801.3 628.15 1801.7 Z"/>
</g>

<g id="Layer0_0_MEMBER_1_MEMBER_25_MEMBER_0_FILL">
<path fill="#604915" stroke="none" d="
M 607.8 1806.2
Q 608.1 1806.2 608.1 1805.85 608.1 1805.55 607.8 1805.55
L 605.2 1805.55
Q 604.85 1805.55 604.85 1805.85 604.85 1806.2 605.2 1806.2
L 607.8 1806.2 Z"/>
</g>

<g id="Layer0_0_MEMBER_1_MEMBER_26_MEMBER_0_FILL">
<path fill="#604915" stroke="none" d="
M 627.6 1806.2
Q 627.9 1806.2 627.9 1805.85 627.9 1805.55 627.6 1805.55
L 625 1805.55
Q 624.7 1805.55 624.7 1805.85 624.7 1806.2 625 1806.2
L 627.6 1806.2 Z"/>
</g>

<path id="Layer0_0_MEMBER_0_1_STROKES" stroke="#666666" stroke-width="1" stroke-linejoin="round" stroke-linecap="round" fill="none" d="
M 761.2 583.15
Q 761.6 581.85 762.3 581 759.9 580.55 758.2 579.65 756.35 578.65 755.5 577.35
L 755.5 577.3
Q 753.7 573.65 756.35 571.9 757.45 571.3 758.1 571.55 758.15 571.55 758.2 571.6 757.15 568.25 758.75 564.45 760.25 561.55 762.75 560.1 767.45 557.3 772.4 559.9 773.5 560.5 774.3 561.1
L 774.75 561.5
Q 775.65 562.25 777.45 561.9 777.55 561.9 777.65 562 777.75 562.05 777.7 562.2 777.3 563.25 776.6 563.75 776.9 563.8 777.2 563.8 777.4 563.75 777.95 563.55 778.05 563.5 778.15 563.6 778.25 563.65 778.2 563.8 778.05 564.7 776.85 565.45
L 776.8 565.5 776.9 565.5
Q 777.45 565.5 777.95 565.35 778.1 565.3 778.2 565.45 778.3 565.6 778.2 565.7 777.5 566.55 777.4 566.8 777.65 568.1 777.55 569.5 777.55 570.55 777.35 571.6 777.65 571.65 778.05 571.8
L 778.1 571.8
Q 780.75 573.1 779.55 576.7
L 779.5 576.7
Q 778.25 579.45 773.7 581.05 774.2 581.75 774.75 583.1"/>
</defs>

<g transform="matrix( 1, 0, 0, 1, -747.3,-551.05) ">
<use xlink:href="#Layer0_0_MEMBER_0_1_STROKES"/>
</g>

<g transform="matrix( 0.3601531982421875, 0, 0, 0.3607330322265625, -201.7,-632.65) ">
<use xlink:href="#Layer0_0_MEMBER_1_MEMBER_0_MEMBER_0_FILL"/>
</g>

<g transform="matrix( 0.3601531982421875, 0, 0, 0.3607330322265625, -201.7,-632.65) ">
<use xlink:href="#Layer0_0_MEMBER_1_MEMBER_1_MEMBER_0_FILL"/>
</g>

<g transform="matrix( 0.3601531982421875, 0, 0, 0.3607330322265625, -201.7,-632.65) ">
<use xlink:href="#Layer0_0_MEMBER_1_MEMBER_2_MEMBER_0_FILL"/>
</g>

<g transform="matrix( 0.3601531982421875, 0, 0, 0.3607330322265625, -201.7,-632.65) ">
<use xlink:href="#Layer0_0_MEMBER_1_MEMBER_3_MEMBER_0_FILL"/>
</g>

<g transform="matrix( 0.3601531982421875, 0, 0, 0.3607330322265625, -201.7,-632.65) ">
<use xlink:href="#Layer0_0_MEMBER_1_MEMBER_4_MEMBER_0_FILL"/>
</g>

<g transform="matrix( 0.3601531982421875, 0, 0, 0.3607330322265625, -201.7,-632.65) ">
<use xlink:href="#Layer0_0_MEMBER_1_MEMBER_5_MEMBER_0_FILL"/>
</g>

<g transform="matrix( 0.3601531982421875, 0, 0, 0.3607330322265625, -201.7,-632.65) ">
<use xlink:href="#Layer0_0_MEMBER_1_MEMBER_6_MEMBER_0_FILL"/>
</g>

<g transform="matrix( 0.3601531982421875, 0, 0, 0.3607330322265625, -201.7,-632.65) ">
<use xlink:href="#Layer0_0_MEMBER_1_MEMBER_7_MEMBER_0_FILL"/>
</g>

<g transform="matrix( 0.3601531982421875, 0, 0, 0.3607330322265625, -201.7,-632.65) ">
<use xlink:href="#Layer0_0_MEMBER_1_MEMBER_8_MEMBER_0_FILL"/>
</g>

<g transform="matrix( 0.3601531982421875, 0, 0, 0.3607330322265625, -201.7,-632.65) ">
<use xlink:href="#Layer0_0_MEMBER_1_MEMBER_9_MEMBER_0_FILL"/>
</g>

<g transform="matrix( 0.3601531982421875, 0, 0, 0.3607330322265625, -201.7,-632.65) ">
<use xlink:href="#Layer0_0_MEMBER_1_MEMBER_10_MEMBER_0_FILL"/>
</g>

<g transform="matrix( 0.3601531982421875, 0, 0, 0.3607330322265625, -201.7,-632.65) ">
<use xlink:href="#Layer0_0_MEMBER_1_MEMBER_11_MEMBER_0_FILL"/>
</g>

<g transform="matrix( 0.3601531982421875, 0, 0, 0.3607330322265625, -201.7,-632.65) ">
<use xlink:href="#Layer0_0_MEMBER_1_MEMBER_12_MEMBER_0_MEMBER_0_FILL"/>
</g>

<g transform="matrix( 0.3601531982421875, 0, 0, 0.3607330322265625, -201.7,-632.65) ">
<use xlink:href="#Layer0_0_MEMBER_1_MEMBER_12_MEMBER_1_MEMBER_0_FILL"/>
</g>

<g transform="matrix( 0.3601531982421875, 0, 0, 0.3607330322265625, -201.7,-632.65) ">
<use xlink:href="#Layer0_0_MEMBER_1_MEMBER_13_MEMBER_0_FILL"/>
</g>

<g transform="matrix( 0.3601531982421875, 0, 0, 0.3607330322265625, -201.7,-632.65) ">
<use xlink:href="#Layer0_0_MEMBER_1_MEMBER_14_MEMBER_0_FILL"/>
</g>

<g transform="matrix( 0.3601531982421875, 0, 0, 0.3607330322265625, -201.7,-632.65) ">
<use xlink:href="#Layer0_0_MEMBER_1_MEMBER_15_MEMBER_0_FILL"/>
</g>

<g transform="matrix( 0.3601531982421875, 0, 0, 0.3607330322265625, -201.7,-632.65) ">
<use xlink:href="#Layer0_0_MEMBER_1_MEMBER_16_MEMBER_0_FILL"/>
</g>

<g transform="matrix( 0.3601531982421875, 0, 0, 0.3607330322265625, -201.7,-632.65) ">
<use xlink:href="#Layer0_0_MEMBER_1_MEMBER_17_MEMBER_0_FILL"/>
</g>

<g transform="matrix( 0.3601531982421875, 0, 0, 0.3607330322265625, -201.7,-632.65) ">
<use xlink:href="#Layer0_0_MEMBER_1_MEMBER_18_MEMBER_0_FILL"/>
</g>

<g transform="matrix( 0.3601531982421875, 0, 0, 0.3607330322265625, -201.7,-632.65) ">
<use xlink:href="#Layer0_0_MEMBER_1_MEMBER_19_MEMBER_0_FILL"/>
</g>

<g transform="matrix( 0.3601531982421875, 0, 0, 0.3607330322265625, -201.7,-632.65) ">
<use xlink:href="#Layer0_0_MEMBER_1_MEMBER_20_MEMBER_0_FILL"/>
</g>

<g transform="matrix( 0.3601531982421875, 0, 0, 0.3607330322265625, -201.7,-632.65) ">
<use xlink:href="#Layer0_0_MEMBER_1_MEMBER_21_MEMBER_0_FILL"/>
</g>

<g transform="matrix( 0.3601531982421875, 0, 0, 0.3607330322265625, -201.7,-632.65) ">
<use xlink:href="#Layer0_0_MEMBER_1_MEMBER_22_MEMBER_0_FILL"/>
</g>

<g transform="matrix( 0.3601531982421875, 0, 0, 0.3607330322265625, -201.7,-632.65) ">
<use xlink:href="#Layer0_0_MEMBER_1_MEMBER_23_MEMBER_0_FILL"/>
</g>

<g transform="matrix( 0.3601531982421875, 0, 0, 0.3607330322265625, -201.7,-632.65) ">
<use xlink:href="#Layer0_0_MEMBER_1_MEMBER_24_MEMBER_0_FILL"/>
</g>

<g transform="matrix( 0.3601531982421875, 0, 0, 0.3607330322265625, -201.7,-632.65) ">
<use xlink:href="#Layer0_0_MEMBER_1_MEMBER_25_MEMBER_0_FILL"/>
</g>

<g transform="matrix( 0.3601531982421875, 0, 0, 0.3607330322265625, -201.7,-632.65) ">
<use xlink:href="#Layer0_0_MEMBER_1_MEMBER_26_MEMBER_0_FILL"/>
</g>
</svg>
