
<svg xmlns="http://www.w3.org/2000/svg" version="1.1" xmlns:xlink="http://www.w3.org/1999/xlink" preserveAspectRatio="none" x="0px" y="0px" width="40px" height="40px" viewBox="0 0 40 40">
<defs>
<g id="Layer0_0_MEMBER_0_FILL">
<path fill="#EDD653" stroke="none" d="
M -420.25 883.35
Q -425.45 871.25 -434.9 862 -425.35 877.85 -425.35 896.45 -425.35 924.1 -444.85 943.6 -464.4 963.15 -492 963.15 -505.35 963.15 -517.6 958.05 -529.45 953.1 -538.65 944.05 -529.7 958.8 -514.8 967.45 -499.4 976.3 -481.55 976.3 -453.95 976.3 -434.4 956.75 -414.9 937.25 -414.9 909.6 -414.9 895.85 -420.25 883.35 Z"/>
</g>

<g id="Layer0_0_MEMBER_1_FILL">
<path fill="#F2DD68" stroke="none" d="
M -455.95 848.05
Q -468.15 842.95 -481.55 842.95 -509.2 842.95 -528.7 862.5 -548.25 882 -548.25 909.6 -548.25 928.25 -538.65 944.05 -529.45 953.1 -517.6 958.05 -505.35 963.15 -492 963.15 -464.4 963.15 -444.85 943.6 -425.35 924.1 -425.35 896.45 -425.35 877.85 -434.9 862 -444.1 853 -455.95 848.05 Z"/>
</g>

<g id="Layer0_0_MEMBER_2_FILL">
<path fill="#825320" stroke="none" d="
M -500.05 888.5
Q -502.2 886.35 -505.3 886.35 -508.4 886.35 -510.55 888.5 -512.75 890.7 -512.75 893.75 -512.75 896.85 -510.55 899 -508.35 901.2 -505.3 901.2 -502.2 901.2 -500.05 899 -497.85 896.85 -497.85 893.75 -497.85 890.7 -500.05 888.5 Z"/>
</g>

<g id="Layer0_0_MEMBER_3_FILL">
<path fill="#825320" stroke="none" d="
M -457.65 888.5
Q -459.8 886.35 -462.9 886.35 -466 886.35 -468.2 888.5 -470.35 890.65 -470.35 893.75 -470.35 896.85 -468.2 899 -466 901.2 -462.9 901.2 -459.85 901.2 -457.65 899 -455.5 896.85 -455.5 893.75 -455.5 890.7 -457.65 888.5 Z"/>
</g>

<g id="Layer0_0_MEMBER_4_FILL">
<path fill="#825320" stroke="none" d="
M -444.4 920.6
Q -443.9 919.55 -444.3 918.45 -444.7 917.4 -445.75 916.9 -446.8 916.45 -447.9 916.85 -448.95 917.25 -449.45 918.25 -449.45 918.3 -451.6 922.1 -454.45 926.65 -457.9 930.35 -469 942.3 -482.75 942.3 -496.4 942.3 -507.05 930.4 -510.4 926.7 -513.05 922.2 -515 918.4 -515.05 918.35 -515.5 917.3 -516.55 916.9 -517.65 916.45 -518.7 916.9 -519.75 917.35 -520.2 918.4 -520.6 919.45 -520.2 920.5 -519.25 922.65 -517.75 925.25 -514.7 930.4 -510.85 934.6 -498.8 947.85 -482.75 947.85 -466.7 947.85 -454.2 934.65 -450.2 930.45 -447 925.3 -445.3 922.55 -444.4 920.6 Z"/>
</g>
</defs>

<g transform="matrix( 0.1799774169921875, 0, 0, 0.1799774169921875, 106.65,-143.7) ">
<use xlink:href="#Layer0_0_MEMBER_0_FILL"/>
</g>

<g transform="matrix( 0.1799774169921875, 0, 0, 0.1799774169921875, 106.65,-143.7) ">
<use xlink:href="#Layer0_0_MEMBER_1_FILL"/>
</g>

<g transform="matrix( 0.1799774169921875, 0, 0, 0.1799774169921875, 106.65,-143.7) ">
<use xlink:href="#Layer0_0_MEMBER_2_FILL"/>
</g>

<g transform="matrix( 0.1799774169921875, 0, 0, 0.1799774169921875, 106.65,-143.7) ">
<use xlink:href="#Layer0_0_MEMBER_3_FILL"/>
</g>

<g transform="matrix( 0.1799774169921875, 0, 0, 0.1799774169921875, 106.65,-143.7) ">
<use xlink:href="#Layer0_0_MEMBER_4_FILL"/>
</g>
</svg>
