
<svg xmlns="http://www.w3.org/2000/svg" version="1.1" xmlns:xlink="http://www.w3.org/1999/xlink" preserveAspectRatio="none" x="0px" y="0px" width="40px" height="40px" viewBox="0 0 40 40">
<defs>
<g id="Layer0_0_FILL">
<path fill="#00B7D7" stroke="none" d="
M 467.15 321.8
L 473.3 325.2 498.15 280.6
Q 500.2 276.9 503.45 275.4 507.1 273.75 510.8 275.8
L 511.35 276.1
Q 515.1 278.2 516.25 282.3 517.45 286.35 515.35 290.2
L 487.7 339.9
Q 483.45 347.45 477.45 349.6 471.45 351.7 464.3 348.15 462.85 347.4 461.15 345.9 457.85 342.9 456.65 339.1 454.65 332.5 459.45 323.85
L 487 274.35
Q 489.35 270.15 492.8 267.2 496.3 264.2 500.5 262.9 504.6 261.6 508.85 262.05 513.15 262.5 517 264.65
L 517.55 264.95
Q 521.6 267.2 524.45 270.8 527.25 274.4 528.55 278.85 529.8 283.25 529.3 287.8 528.75 292.35 526.5 296.4
L 501.8 340.8 507.9 344.2 532.65 299.8
Q 535.55 294.5 536.25 288.6 536.9 282.7 535.25 276.9 533.6 271.1 529.95 266.45 526.25 261.8 521 258.85
L 520.4 258.55
Q 515.25 255.65 509.55 255.1 503.85 254.5 498.35 256.25 492.9 258 488.4 261.8 483.85 265.6 480.85 270.95
L 453.3 320.45
Q 447.05 331.75 450 341.25 451.8 346.9 456.55 351.15 458.95 353.3 461.2 354.4 466.95 357.35 472.75 357.35 479.1 357.35 484.5 353.8 490 350.15 493.8 343.3
L 521.5 293.6
Q 525 287.3 523 280.4 522.05 277.05 519.95 274.4 517.8 271.7 514.75 270
L 514.2 269.7
Q 508.25 266.35 501.95 268.5 495.7 270.6 492 277.15
L 467.15 321.8 Z"/>
</g>
</defs>

<g transform="matrix( 0.1950836181640625, 0, 0, 0.1953125, -76.1,-39.8) ">
<use xlink:href="#Layer0_0_FILL"/>
</g>
</svg>
